<svg width="227" height="48" viewBox="0 0 227 48" fill="none" xmlns="http://www.w3.org/2000/svg">
<path d="M24.96 6L24.896 6.192L42.048 47.856L33.792 46L29.312 34.288L14.208 35.312L9.6 47.856L0.64 46L16.128 3.376L24.96 6ZM21.76 14.64L16.256 29.744L27.264 28.976L21.76 14.64ZM30.6705 32.752C30.9265 30.2347 31.6732 28.2507 32.9105 26.8C34.1052 25.3067 35.7052 24.56 37.7105 24.56C38.9905 24.56 40.2065 24.88 41.3585 25.52C42.4678 26.1173 43.5345 26.7147 44.5585 27.312C45.5825 27.9093 46.5425 28.208 47.4385 28.208C48.4198 28.208 49.1665 27.9093 49.6785 27.312C50.2332 26.672 50.6598 25.7333 50.9585 24.496H54.1585C53.9025 26.9707 53.1772 28.9547 51.9825 30.448C50.7878 31.9413 49.1878 32.688 47.1825 32.688C45.9878 32.688 44.8145 32.3893 43.6625 31.792C42.5532 31.1947 41.4865 30.5973 40.4625 30C39.3958 29.36 38.3932 29.04 37.4545 29.04C36.4305 29.04 35.6625 29.36 35.1505 30C34.6385 30.5973 34.2332 31.5147 33.9345 32.752H30.6705ZM54.0945 17.2V18.928C57.1238 15.984 59.9185 14.5973 62.4785 14.768C63.2892 14.8107 64.6118 15.5787 66.4465 17.072C68.2812 18.5227 70.0305 20.144 71.6945 21.936C75.7052 16.944 79.4172 14.5547 82.8305 14.768C84.1958 14.8533 86.5852 16.56 89.9985 19.888C93.4545 23.1733 95.2892 25.4133 95.5025 26.608C95.6732 27.7173 95.7585 34.8 95.7585 47.856L87.8225 46.064C88.0785 31.3867 87.9718 23.6213 87.5025 22.768C86.9905 21.8293 86.2438 21.3387 85.2625 21.296C84.3238 21.2533 83.2785 21.5733 82.1265 22.256C81.0172 22.9387 79.8865 23.8133 78.7345 24.88C77.5825 25.904 76.4305 27.0773 75.2785 28.4C75.3638 30.7467 75.4065 37.232 75.4065 47.856L67.4705 46.064C67.7265 31.3867 67.6198 23.6213 67.1505 22.768C66.5105 21.8293 65.6998 21.3387 64.7185 21.296C63.7798 21.2533 62.6705 21.6587 61.3905 22.512C60.1105 23.3227 58.8518 24.3253 57.6145 25.52C56.4198 26.672 55.2465 27.9733 54.0945 29.424V47.856L46.0945 46.064V15.408L54.0945 17.2ZM87.2955 32.752C87.5515 30.2347 88.2982 28.2507 89.5355 26.8C90.7302 25.3067 92.3302 24.56 94.3355 24.56C95.6155 24.56 96.8315 24.88 97.9835 25.52C99.0928 26.1173 100.16 26.7147 101.184 27.312C102.208 27.9093 103.168 28.208 104.064 28.208C105.045 28.208 105.792 27.9093 106.304 27.312C106.858 26.672 107.285 25.7333 107.584 24.496H110.784C110.528 26.9707 109.802 28.9547 108.608 30.448C107.413 31.9413 105.813 32.688 103.808 32.688C102.613 32.688 101.44 32.3893 100.288 31.792C99.1782 31.1947 98.1115 30.5973 97.0875 30C96.0208 29.36 95.0182 29.04 94.0795 29.04C93.0555 29.04 92.2875 29.36 91.7755 30C91.2635 30.5973 90.8582 31.5147 90.5595 32.752H87.2955ZM124.224 15.472L132.224 17.264V47.92L124.224 46.128V42.928C120.81 46.4267 117.653 48.0693 114.752 47.856C113.386 47.7707 110.954 46.192 107.456 43.12C103.957 40.048 102.101 37.9147 101.888 36.72C101.717 35.6107 101.632 28.528 101.632 15.472L109.568 17.264C109.354 31.9413 109.461 39.728 109.888 40.624C110.741 41.8187 112.021 42.2027 113.728 41.776C115.477 41.3493 117.397 40.1333 119.488 38.128C121.621 36.1227 123.2 33.9253 124.224 31.536V15.472ZM124.858 32.752C125.114 30.2347 125.861 28.2507 127.098 26.8C128.293 25.3067 129.893 24.56 131.898 24.56C133.178 24.56 134.394 24.88 135.546 25.52C136.655 26.1173 137.722 26.7147 138.746 27.312C139.77 27.9093 140.73 28.208 141.626 28.208C142.607 28.208 143.354 27.9093 143.866 27.312C144.421 26.672 144.847 25.7333 145.146 24.496H148.346C148.09 26.9707 147.365 28.9547 146.17 30.448C144.975 31.9413 143.375 32.688 141.37 32.688C140.175 32.688 139.002 32.3893 137.85 31.792C136.741 31.1947 135.674 30.5973 134.65 30C133.583 29.36 132.581 29.04 131.642 29.04C130.618 29.04 129.85 29.36 129.338 30C128.826 30.5973 128.421 31.5147 128.122 32.752H124.858ZM148.282 2.352V47.856L140.282 46.064V0.559998L148.282 2.352ZM140.295 32.752C140.551 30.2347 141.298 28.2507 142.535 26.8C143.73 25.3067 145.33 24.56 147.335 24.56C148.615 24.56 149.831 24.88 150.983 25.52C152.093 26.1173 153.16 26.7147 154.184 27.312C155.208 27.9093 156.168 28.208 157.064 28.208C158.045 28.208 158.792 27.9093 159.304 27.312C159.858 26.672 160.285 25.7333 160.584 24.496H163.784C163.528 26.9707 162.802 28.9547 161.608 30.448C160.413 31.9413 158.813 32.688 156.808 32.688C155.613 32.688 154.44 32.3893 153.288 31.792C152.178 31.1947 151.111 30.5973 150.087 30C149.021 29.36 148.018 29.04 147.079 29.04C146.055 29.04 145.287 29.36 144.775 30C144.263 30.5973 143.858 31.5147 143.559 32.752H140.295ZM162.248 33.264L176.776 23.344C173.704 21.3813 171.08 20.656 168.904 21.168C166.77 21.68 165.128 23.024 163.976 25.2C162.824 27.3333 162.248 30.0213 162.248 33.264ZM163.72 39.408C164.914 40.8587 166.258 41.7547 167.752 42.096C169.245 42.4373 170.802 42.2453 172.424 41.52C174.088 40.752 175.474 40.0053 176.584 39.28C177.693 38.512 178.994 37.5093 180.488 36.272L181.768 37.552C182.578 38.448 183.389 39.344 184.2 40.24L185.479 41.52C181.768 44.2507 178.632 46.064 176.072 46.96C173.512 47.8987 170.973 47.8987 168.456 46.96C164.786 45.552 161.33 43.0773 158.088 39.536C156.168 37.4027 155.058 34.8853 154.76 31.984C154.461 29.04 154.824 26.3093 155.848 23.792C156.914 21.2747 158.536 19.1413 160.712 17.392C162.93 15.6 165.341 14.704 167.944 14.704C169.65 14.704 172.168 15.8133 175.496 18.032C178.866 20.208 181.661 22.3413 183.88 24.432C183.837 24.56 182.13 25.8827 178.76 28.4C175.432 30.8747 172.082 33.328 168.712 35.76L163.72 39.408ZM175.67 32.752C175.926 30.2347 176.673 28.2507 177.91 26.8C179.105 25.3067 180.705 24.56 182.71 24.56C183.99 24.56 185.206 24.88 186.358 25.52C187.468 26.1173 188.535 26.7147 189.559 27.312C190.583 27.9093 191.543 28.208 192.439 28.208C193.42 28.208 194.167 27.9093 194.679 27.312C195.233 26.672 195.66 25.7333 195.959 24.496H199.159C198.903 26.9707 198.177 28.9547 196.983 30.448C195.788 31.9413 194.188 32.688 192.183 32.688C190.988 32.688 189.815 32.3893 188.663 31.792C187.553 31.1947 186.486 30.5973 185.462 30C184.396 29.36 183.393 29.04 182.454 29.04C181.43 29.04 180.662 29.36 180.15 30C179.638 30.5973 179.233 31.5147 178.934 32.752H175.67ZM189.623 19.888L187.703 15.408H192.951V8.496L200.823 10.288V15.408H208.631L210.551 19.888H200.823V28.016C200.823 28.4853 200.823 29.1893 200.823 30.128C200.823 31.28 200.801 32.432 200.759 33.584C200.759 34.736 200.823 35.824 200.951 36.848C201.121 37.872 201.313 38.8107 201.527 39.664C201.74 40.5173 202.103 41.2 202.615 41.712C203.127 42.224 203.745 42.5653 204.471 42.736C205.196 42.9067 206.113 42.8 207.223 42.416C208.375 41.9893 209.676 41.3067 211.127 40.368L212.855 42.352C210.38 44.6133 208.311 46.192 206.647 47.088C205.367 47.8133 203.596 47.6853 201.335 46.704C199.116 45.7653 197.153 44.4427 195.447 42.736C193.783 40.9867 192.951 39.472 192.951 38.192V19.888H189.623ZM202.733 32.752C202.989 30.2347 203.736 28.2507 204.973 26.8C206.168 25.3067 207.768 24.56 209.773 24.56C211.053 24.56 212.269 24.88 213.421 25.52C214.53 26.1173 215.597 26.7147 216.621 27.312C217.645 27.9093 218.605 28.208 219.501 28.208C220.482 28.208 221.229 27.9093 221.741 27.312C222.296 26.672 222.722 25.7333 223.021 24.496H226.221C225.965 26.9707 225.24 28.9547 224.045 30.448C222.85 31.9413 221.25 32.688 219.245 32.688C218.05 32.688 216.877 32.3893 215.725 31.792C214.616 31.1947 213.549 30.5973 212.525 30C211.458 29.36 210.456 29.04 209.517 29.04C208.493 29.04 207.725 29.36 207.213 30C206.701 30.5973 206.296 31.5147 205.997 32.752H202.733Z" fill="black"/>
</svg>
