<svg width="47" height="60" viewBox="0 0 47 60" fill="none" xmlns="http://www.w3.org/2000/svg">
<path d="M17.875 53.2109C17.875 53.4062 17.3477 53.6211 16.293 53.8555C15.2773 54.0898 14.6523 54.207 14.418 54.207C14.2227 54.207 14.125 54.0508 14.125 53.7383V2.64453C14.0859 2.41016 14.1836 2.25391 14.418 2.17578C15.3555 1.90234 16.332 1.76562 17.3477 1.76562C17.5039 1.76562 17.6211 1.80469 17.6992 1.88281C17.7773 1.92187 17.8164 1.96094 17.8164 2V2.11719L17.875 53.2109ZM15.0344 32.42L30.2744 23.24L32.4944 26.9L17.1944 36.02L15.0344 32.42ZM23.9744 11.78C18.1744 11.78 13.2544 10.84 9.21437 8.96C5.17437 7.04 2.31437 4.22 0.634374 0.499998H4.83437C6.23437 2.66 8.49437 4.36 11.6144 5.6C14.7344 6.84 18.8344 7.46 23.9144 7.46C28.1944 7.46 31.9744 6.92 35.2544 5.84C38.5744 4.72 41.0544 2.94 42.6944 0.499998H46.8944C44.8544 4.5 41.8144 7.38 37.7744 9.14C33.7744 10.9 29.1744 11.78 23.9744 11.78ZM20.1602 6.74609C20.7852 6.74609 21.293 6.86328 21.6836 7.09766C22.0742 7.29297 22.3086 7.48828 22.3867 7.68359C22.5039 7.83984 22.5625 7.99609 22.5625 8.15234C22.5625 9.12891 21.1562 10.7109 18.3438 12.8984C15.5703 15.0469 13.9297 16.1211 13.4219 16.1211C12.9531 16.1211 12.7188 15.8672 12.7188 15.3594C12.7188 15.2422 13.0117 14.6953 13.5977 13.7188C14.2227 12.7031 14.9648 11.5703 15.8242 10.3203C16.7227 9.03125 17.5039 8.01562 18.168 7.27344C18.5195 6.92188 19.1836 6.74609 20.1602 6.74609ZM26.1344 49.4V59.24H21.3344V49.4H26.1344ZM15.2744 6.14C15.2744 5.1 15.5544 4.36 16.1144 3.92C16.6744 3.44 17.3344 3.2 18.0944 3.2C18.8544 3.2 19.5144 3.44 20.0744 3.92C20.6344 4.36 20.9144 5.1 20.9144 6.14C20.9144 7.14 20.6344 7.9 20.0744 8.42C19.5144 8.9 18.8544 9.14 18.0944 9.14C17.3344 9.14 16.6744 8.9 16.1144 8.42C15.5544 7.9 15.2744 7.14 15.2744 6.14ZM26.5544 6.14C26.5544 5.1 26.8144 4.36 27.3344 3.92C27.8944 3.44 28.5544 3.2 29.3144 3.2C30.0744 3.2 30.7344 3.44 31.2944 3.92C31.8544 4.36 32.1344 5.1 32.1344 6.14C32.1344 7.14 31.8544 7.9 31.2944 8.42C30.7344 8.9 30.0744 9.14 29.3144 9.14C28.5544 9.14 27.8944 8.9 27.3344 8.42C26.8144 7.9 26.5544 7.14 26.5544 6.14ZM32.5834 12.64C32.1034 13.36 31.3634 14.3 30.3634 15.46C29.3634 16.58 28.3034 17.72 27.1834 18.88C26.0234 20 24.9634 20.92 24.0034 21.64H20.5234V20.92C21.1234 20.16 21.7834 19.26 22.5034 18.22C23.1834 17.18 23.8634 16.12 24.5434 15.04C25.2234 13.92 25.7834 12.92 26.2234 12.04H32.5834V12.64ZM10.668 48.582H12.1328C12.875 48.582 13.4805 48.8555 13.9492 49.4023C14.457 49.9883 14.7109 50.6719 14.7109 51.4531C14.7109 52.7812 14.1836 53.8555 13.1289 54.6758C12.0742 55.4961 10.7656 55.9062 9.20312 55.9062C8.38281 55.9062 7.71875 55.7305 7.21094 55.3789C7.21094 55.3398 7.17188 55.2227 7.09375 55.0273C7.05469 54.8711 7.03516 54.7148 7.03516 54.5586C7.03516 54.3633 7.11328 54.168 7.26953 53.9727C7.46484 53.8164 7.66016 53.7383 7.85547 53.7383C8.08984 53.7383 8.42188 53.8555 8.85156 54.0898C9.28125 54.3633 9.67188 54.5 10.0234 54.5C10.8047 54.5 11.4102 54.3047 11.8398 53.9141C12.3086 53.5625 12.543 53.1133 12.543 52.5664C12.543 51.9414 12.3477 51.4531 11.957 51.1016C11.5664 50.75 11.1562 50.5742 10.7266 50.5742C10.375 50.5742 9.86719 50.7109 9.20312 50.9844C9.125 50.9844 8.98828 50.8867 8.79297 50.6914C8.63672 50.4961 8.57812 50.3398 8.61719 50.2227C8.77344 49.9883 9.08594 49.5 9.55469 48.7578C10.0234 48.0547 10.3359 47.5469 10.4922 47.2344H11.7227L10.668 48.582ZM15.2744 54.5C15.2744 53.46 15.5544 52.7 16.1144 52.22C16.6744 51.78 17.3344 51.56 18.0944 51.56C18.8544 51.56 19.5144 51.78 20.0744 52.22C20.6344 52.7 20.9144 53.46 20.9144 54.5C20.9144 55.5 20.6344 56.24 20.0744 56.72C19.5144 57.24 18.8544 57.5 18.0944 57.5C17.3344 57.5 16.6744 57.24 16.1144 56.72C15.5544 56.24 15.2744 55.5 15.2744 54.5ZM26.5544 54.5C26.5544 53.46 26.8144 52.7 27.3344 52.22C27.8944 51.78 28.5544 51.56 29.3144 51.56C30.0744 51.56 30.7344 51.78 31.2944 52.22C31.8544 52.7 32.1344 53.46 32.1344 54.5C32.1344 55.5 31.8544 56.24 31.2944 56.72C30.7344 57.24 30.0744 57.5 29.3144 57.5C28.5544 57.5 27.8944 57.24 27.3344 56.72C26.8144 56.24 26.5544 55.5 26.5544 54.5ZM12.453 46.62C12.453 44.26 13.073 42.5 14.313 41.34C15.553 40.22 17.133 39.66 19.053 39.66C21.213 39.66 22.813 40.36 23.853 41.76C24.893 40.36 26.493 39.66 28.653 39.66C30.613 39.66 32.193 40.24 33.393 41.4C34.593 42.56 35.193 44.3 35.193 46.62H31.953C31.953 43.98 30.853 42.66 28.653 42.66C27.653 42.66 26.833 42.98 26.193 43.62C25.593 44.26 25.293 45.26 25.293 46.62H22.413C22.413 43.98 21.293 42.66 19.053 42.66C18.053 42.66 17.253 42.98 16.653 43.62C16.013 44.26 15.693 45.26 15.693 46.62H12.453ZM32.9088 30.56V34.82H15.0887V30.56H32.9088Z" fill="black"/>
</svg>
