<svg width="28" height="62" viewBox="0 0 28 62" fill="none" xmlns="http://www.w3.org/2000/svg">
<path d="M4.98047 16.3555C4.98047 13.9336 4.84375 12.1953 4.57031 11.1406C4.45312 10.8281 3.88672 10.5547 2.87109 10.3203C1.89453 10.0469 1.15234 9.91016 0.644531 9.91016C0.488281 9.91016 0.410156 9.65625 0.410156 9.14844C0.410156 8.67969 0.488281 8.36719 0.644531 8.21094C5.13672 8.40625 7.48047 8.50391 7.67578 8.50391C8.30078 8.50391 10.5664 8.40625 14.4727 8.21094C14.5508 8.44531 14.5898 8.73828 14.5898 9.08984C14.5898 9.63672 14.5117 9.91016 14.3555 9.91016C13.9648 9.91016 13.2617 10.0469 12.2461 10.3203C11.2305 10.5937 10.6836 10.8672 10.6055 11.1406C10.2539 12.5078 10.0781 14.3242 10.0781 16.5898V38.8555C10.0781 41.1211 10.2539 42.9375 10.6055 44.3047C10.6836 44.5781 11.2305 44.8516 12.2461 45.125C13.2617 45.3594 13.9648 45.4766 14.3555 45.4766C14.5117 45.4766 14.5898 45.7695 14.5898 46.3555C14.5898 46.668 14.5508 46.9414 14.4727 47.1758C10.5664 46.9805 8.30078 46.8828 7.67578 46.8828C7.48047 46.8828 5.13672 46.9805 0.644531 47.1758C0.488281 47.0195 0.410156 46.7266 0.410156 46.2969C0.410156 45.75 0.488281 45.4766 0.644531 45.4766C1.15234 45.4766 1.89453 45.3594 2.87109 45.125C3.88672 44.8906 4.45312 44.6172 4.57031 44.3047C4.84375 43.25 4.98047 41.5117 4.98047 39.0898V16.3555ZM8.11641 32.42L23.3564 23.24L25.5764 26.9L10.2764 36.02L8.11641 32.42ZM10.6964 3.08L13.2164 0.499998L16.8164 4.1L20.3564 0.499998L22.9364 3.08L19.3364 6.62L22.9364 10.22L20.3564 12.74L16.8164 9.2L13.2164 12.74L10.6964 10.22L14.2364 6.62L10.6964 3.08ZM8.53219 20.14C8.53219 19.1 8.81219 18.36 9.37219 17.92C9.93219 17.44 10.5922 17.2 11.3522 17.2C12.1122 17.2 12.7722 17.44 13.3322 17.92C13.8922 18.36 14.1722 19.1 14.1722 20.14C14.1722 21.14 13.8922 21.9 13.3322 22.42C12.7722 22.9 12.1122 23.14 11.3522 23.14C10.5922 23.14 9.93219 22.9 9.37219 22.42C8.81219 21.9 8.53219 21.14 8.53219 20.14ZM19.8122 20.14C19.8122 19.1 20.0722 18.36 20.5922 17.92C21.1522 17.44 21.8122 17.2 22.5722 17.2C23.3322 17.2 23.9922 17.44 24.5522 17.92C25.1122 18.36 25.3922 19.1 25.3922 20.14C25.3922 21.14 25.1122 21.9 24.5522 22.42C23.9922 22.9 23.3322 23.14 22.5722 23.14C21.8122 23.14 21.1522 22.9 20.5922 22.42C20.0722 21.9 19.8122 21.14 19.8122 20.14ZM25.8412 27.64C25.3612 28.36 24.6212 29.3 23.6212 30.46C22.6212 31.58 21.5612 32.72 20.4412 33.88C19.2812 35 18.2212 35.92 17.2612 36.64H13.7812V35.92C14.3812 35.16 15.0412 34.26 15.7612 33.22C16.4412 32.18 17.1212 31.12 17.8012 30.04C18.4812 28.92 19.0412 27.92 19.4812 27.04H25.8412V27.64ZM19.5764 40.04C20.0564 40.92 20.7364 41.92 21.6164 43.04C22.5364 44.12 23.4764 45.2 24.4364 46.28C25.4364 47.32 26.3164 48.22 27.0764 48.98V49.64H23.3564C22.3164 49 21.2364 48.22 20.1164 47.3C18.9964 46.34 17.8964 45.32 16.8164 44.24C15.7364 45.32 14.6564 46.32 13.5764 47.24C12.4964 48.16 11.4364 48.96 10.3964 49.64H6.79641V48.98C7.55641 48.18 8.41641 47.26 9.37641 46.22C10.2964 45.18 11.1964 44.12 12.0764 43.04C12.9564 41.92 13.6564 40.92 14.1764 40.04H19.5764ZM6.62109 52.918C6.62109 52.0586 6.99219 51.2969 7.73438 50.6328C8.47656 50.0078 9.64844 49.6953 11.25 49.6953C11.6016 49.9688 11.8945 50.418 12.1289 51.043C12.4023 51.707 12.5391 52.293 12.5391 52.8008C12.5391 55.9258 10.9375 58.3867 7.73438 60.1836C7.65625 60.2617 7.5 60.3008 7.26562 60.3008C6.48438 60.3008 6.09375 60.1641 6.09375 59.8906L7.44141 58.6016C8.33984 57.7031 8.78906 56.9805 8.78906 56.4336C8.78906 55.9258 8.41797 55.3594 7.67578 54.7344C6.97266 54.1094 6.62109 53.5039 6.62109 52.918ZM20.9564 61.4C20.1964 61 19.2764 60.54 18.1964 60.02C17.1164 59.5 16.0164 59 14.8964 58.52C13.7764 58.04 12.7364 57.66 11.7764 57.38V53.3C12.7364 53.06 13.7764 52.7 14.8964 52.22C16.0164 51.78 17.1164 51.3 18.1964 50.78C19.2764 50.26 20.1964 49.8 20.9564 49.4H21.6164V52.46C20.8964 52.94 20.0764 53.4 19.1564 53.84C18.2364 54.32 17.2164 54.84 16.0964 55.4C17.2164 55.92 18.2164 56.42 19.0964 56.9C19.9764 57.38 20.8164 57.88 21.6164 58.4V61.4H20.9564ZM6.13641 34.88H27.4964V45.08H23.5364V38.48H10.0964V45.08H6.13641V34.88Z" fill="black"/>
</svg>
