<svg width="39" height="65" viewBox="0 0 39 65" fill="none" xmlns="http://www.w3.org/2000/svg">
<path d="M16.875 56.2109C16.875 56.4062 16.3477 56.6211 15.293 56.8555C14.2773 57.0898 13.6523 57.207 13.418 57.207C13.2227 57.207 13.125 57.0508 13.125 56.7383V5.64453C13.0859 5.41016 13.1836 5.25391 13.418 5.17578C14.3555 4.90234 15.332 4.76562 16.3477 4.76562C16.5039 4.76562 16.6211 4.80469 16.6992 4.88281C16.7773 4.92187 16.8164 4.96094 16.8164 5V5.11719L16.875 56.2109ZM14.0344 35.42L29.2744 26.24L31.4944 29.9L16.1944 39.02L14.0344 35.42ZM29.7544 64.28C27.3544 64.28 25.5744 63.58 24.4144 62.18C23.2944 60.82 22.7344 58.86 22.7344 56.3V47.48H27.4744V56.6C27.4744 58.68 28.4344 59.72 30.3544 59.72C30.9944 59.72 31.5744 59.66 32.0944 59.54C32.6144 59.42 33.0344 59.3 33.3544 59.18V63.56C32.9544 63.72 32.4344 63.88 31.7944 64.04C31.1944 64.2 30.5144 64.28 29.7544 64.28ZM30.7064 38.4C31.1864 39.28 31.8664 40.26 32.7464 41.34C33.6664 42.46 34.6064 43.54 35.5664 44.58C36.5664 45.66 37.4464 46.58 38.2064 47.34V48H34.4864C33.4464 47.36 32.3664 46.56 31.2464 45.6C30.1264 44.68 29.0264 43.68 27.9464 42.6C26.8664 43.68 25.7864 44.68 24.7064 45.6C23.6264 46.52 22.5664 47.32 21.5264 48H17.9264V47.34C18.6864 46.54 19.5464 45.62 20.5064 44.58C21.4264 43.54 22.3264 42.46 23.2064 41.34C24.0864 40.26 24.7864 39.28 25.3064 38.4H30.7064ZM22.9036 29.58H29.5036V25.68H33.4636V37.08H29.5036V33.18H22.9036V29.58ZM11.2144 6.2C11.2144 7.72 10.7544 8.9 9.83437 9.74C8.91437 10.54 7.75437 11.1 6.35437 11.42L6.05437 14.6H2.81437L2.39437 9.5C3.83437 9.26 4.99437 8.92 5.87437 8.48C6.71437 8 7.13437 7.3 7.13437 6.38C7.13437 5.42 6.77437 4.78 6.05437 4.46C5.29437 4.14 4.35437 3.98 3.23437 3.98C2.71437 3.98 2.19437 4 1.67437 4.04C1.11437 4.08 0.674374 4.14 0.354373 4.22V1.1C1.07437 0.859997 2.17437 0.739998 3.65437 0.739998C6.05437 0.739998 7.91437 1.18 9.23437 2.06C10.5544 2.94 11.2144 4.32 11.2144 6.2ZM2.57203 18.64C4.53203 18.64 6.11203 19.2 7.31203 20.32C8.51203 21.44 9.11203 23 9.11203 25C9.11203 26.96 8.51203 28.5 7.31203 29.62C6.11203 30.74 4.53203 31.3 2.57203 31.3V28.3C3.53203 28.3 4.33203 28.02 4.97203 27.46C5.61203 26.86 5.93203 26.04 5.93203 25C5.93203 22.8 4.81203 21.7 2.57203 21.7V18.64ZM19.7461 47.5391C21.0352 47.5391 21.6602 47.7539 21.6211 48.1836C21.6211 48.3008 21.5625 48.418 21.4453 48.5352C21.3281 48.6523 20.5273 49.2188 19.043 50.2344C17.5977 51.25 16.3672 52.3047 15.3516 53.3984C14.375 54.5312 13.8867 55.6641 13.8867 56.7969C13.8867 57.4219 14.0625 57.9883 14.4141 58.4961C14.7656 59.043 15.3906 59.3164 16.2891 59.3164C17.1484 59.3164 17.9492 59.1211 18.6914 58.7305C19.4336 58.3789 20 58.0078 20.3906 57.6172C20.7812 57.2656 20.9961 57.0898 21.0352 57.0898C21.2305 57.0898 21.3281 57.3438 21.3281 57.8516C21.3281 58.2422 21.2305 58.5742 21.0352 58.8477C19.043 61.4648 16.9922 62.7734 14.8828 62.7734C13.4375 62.7734 12.3828 62.2852 11.7188 61.3086C11.0547 60.332 10.7227 59.3164 10.7227 58.2617C10.7227 56.5039 11.9727 54.2773 14.4727 51.582C16.9727 48.8867 18.7305 47.5391 19.7461 47.5391Z" fill="black"/>
</svg>
