<svg width="19" height="61" viewBox="0 0 19 61" fill="none" xmlns="http://www.w3.org/2000/svg">
<path d="M3.875 52.2109C3.875 52.4062 3.34766 52.6211 2.29297 52.8555C1.27734 53.0898 0.652344 53.207 0.417969 53.207C0.222656 53.207 0.125 53.0508 0.125 52.7383V1.64453C0.0859375 1.41016 0.183594 1.25391 0.417969 1.17578C1.35547 0.902344 2.33203 0.765625 3.34766 0.765625C3.50391 0.765625 3.62109 0.804687 3.69922 0.882812C3.77734 0.921875 3.81641 0.960938 3.81641 1V1.11719L3.875 52.2109ZM1.03437 31.42L16.2744 22.24L18.4944 25.9L3.19437 35.02L1.03437 31.42ZM5.35437 48.4C6.15437 48.8 7.09437 49.26 8.17437 49.78C9.21437 50.3 10.2944 50.8 11.4144 51.28C12.5344 51.76 13.5744 52.14 14.5344 52.42V56.5C13.5744 56.74 12.5344 57.08 11.4144 57.52C10.2944 58 9.21437 58.48 8.17437 58.96C7.09437 59.48 6.15437 59.96 5.35437 60.4H4.69437V57.34C5.41437 56.86 6.23437 56.38 7.15437 55.9C8.07437 55.42 9.09437 54.92 10.2144 54.4C9.09437 53.84 8.09437 53.32 7.21437 52.84C6.33437 52.4 5.49437 51.92 4.69437 51.4V48.4H5.35437ZM5.47156 33.4C6.27156 33.8 7.21156 34.26 8.29156 34.78C9.33156 35.3 10.4116 35.8 11.5316 36.28C12.6516 36.76 13.6916 37.14 14.6516 37.42V41.5C13.6916 41.74 12.6516 42.08 11.5316 42.52C10.4116 43 9.33156 43.48 8.29156 43.96C7.21156 44.48 6.27156 44.96 5.47156 45.4H4.81156V42.34C5.53156 41.86 6.35156 41.38 7.27156 40.9C8.19156 40.42 9.21156 39.92 10.3316 39.4C9.21156 38.84 8.21156 38.32 7.33156 37.84C6.45156 37.4 5.61156 36.92 4.81156 36.4V33.4H5.47156ZM4.99437 17.2C5.55437 15.08 6.31437 12.74 7.27437 10.18C8.23437 7.62 9.19437 5.28 10.1544 3.16H14.0544C13.6944 4.68 13.3144 6.32 12.9144 8.08C12.5144 9.8 12.1544 11.52 11.8344 13.24C11.5144 14.92 11.2544 16.46 11.0544 17.86H5.35437L4.99437 17.2Z" fill="black"/>
</svg>
